<svg width="81" height="26" viewBox="0 0 81 26" fill="none" xmlns="http://www.w3.org/2000/svg">
<path d="M2.28576 13C2.28576 18.9092 6.99947 23.686 12.7977 23.686C18.5959 23.686 23.3096 18.9092 23.3096 13C23.3096 7.09083 18.5959 2.31395 12.7977 2.31395C6.99947 2.31395 2.28576 7.09083 2.28576 13Z" fill="#E7EAE3" stroke="#9BE139"/>
<ellipse cx="9.22619" cy="9.37209" rx="9.22619" ry="9.37209" transform="matrix(-1 0 0 1 22.0238 3.62791)" fill="#ACED51"/>
<path d="M13.1348 15.1038C12.8048 14.2523 11.5999 14.2523 11.2699 15.1038L8.8637 21.3131C8.60973 21.9685 9.09328 22.6744 9.79614 22.6744H14.6085C15.3114 22.6744 15.7949 21.9685 15.541 21.3131L13.1348 15.1038Z" fill="#358F14"/>
<path d="M13.1348 15.1038C12.8048 14.2523 11.5999 14.2523 11.2699 15.1038L8.8637 21.3131C8.60973 21.9685 9.09328 22.6744 9.79614 22.6744H14.6085C15.3114 22.6744 15.7949 21.9685 15.541 21.3131L13.1348 15.1038Z" fill="#85C729"/>
<g filter="url(#filter0_i_49_440)">
<path d="M11.2699 10.8962C11.5999 11.7477 12.8048 11.7477 13.1348 10.8962L15.541 4.68691C15.7949 4.03155 15.3114 3.32558 14.6085 3.32558H9.79612C9.09326 3.32558 8.60972 4.03155 8.86368 4.68691L11.2699 10.8962Z" fill="#358F14"/>
<path d="M11.2699 10.8962C11.5999 11.7477 12.8048 11.7477 13.1348 10.8962L15.541 4.68691C15.7949 4.03155 15.3114 3.32558 14.6085 3.32558H9.79612C9.09326 3.32558 8.60972 4.03155 8.86368 4.68691L11.2699 10.8962Z" fill="#85C729"/>
</g>
<path d="M9.91098 13.94C10.7893 13.6211 10.7893 12.3789 9.91098 12.06L4.46626 10.0833C3.81416 9.84653 3.125 10.3295 3.125 11.0232L3.125 14.9768C3.125 15.6705 3.81416 16.1535 4.46626 15.9167L9.91098 13.94Z" fill="#358F14"/>
<path d="M9.91098 13.94C10.7893 13.6211 10.7893 12.3789 9.91098 12.06L4.46626 10.0833C3.81416 9.84653 3.125 10.3295 3.125 11.0232L3.125 14.9768C3.125 15.6705 3.81416 16.1535 4.46626 15.9167L9.91098 13.94Z" fill="#85C729"/>
<path d="M14.7017 12.0777C13.8836 12.4204 13.8836 13.5796 14.7017 13.9223L20.4886 16.3466C21.1475 16.6226 21.875 16.1386 21.875 15.4242V10.5758C21.875 9.86139 21.1475 9.37742 20.4886 9.65345L14.7017 12.0777Z" fill="#358F14"/>
<path d="M14.7017 12.0777C13.8836 12.4204 13.8836 13.5796 14.7017 13.9223L20.4886 16.3466C21.1475 16.6226 21.875 16.1386 21.875 15.4242V10.5758C21.875 9.86139 21.1475 9.37742 20.4886 9.65345L14.7017 12.0777Z" fill="#85C729"/>
<g filter="url(#filter1_i_49_440)">
<path d="M13.8654 10.1263C13.4044 11.023 14.3869 11.9741 15.2465 11.4633L20.0226 8.62468C20.5919 8.28632 20.6831 7.48803 20.2053 7.02546L17.9909 4.88168C17.5131 4.41912 16.7325 4.55 16.4272 5.14388L13.8654 10.1263Z" fill="#358F14"/>
<path d="M13.8654 10.1263C13.4044 11.023 14.3869 11.9741 15.2465 11.4633L20.0226 8.62468C20.5919 8.28632 20.6831 7.48803 20.2053 7.02546L17.9909 4.88168C17.5131 4.41912 16.7325 4.55 16.4272 5.14388L13.8654 10.1263Z" fill="#85C729"/>
</g>
<g filter="url(#filter2_i_49_440)">
<path d="M9.32636 11.5953C10.2004 11.9992 11.072 11.0335 10.6002 10.1839L8.25301 5.95744C7.92137 5.36027 7.11274 5.26535 6.65718 5.77013L4.65589 7.9876C4.20032 8.49238 4.36349 9.30248 4.9779 9.58634L9.32636 11.5953Z" fill="#358F14"/>
<path d="M9.32636 11.5953C10.2004 11.9992 11.072 11.0335 10.6002 10.1839L8.25301 5.95744C7.92137 5.36027 7.11274 5.26535 6.65718 5.77013L4.65589 7.9876C4.20032 8.49238 4.36349 9.30248 4.9779 9.58634L9.32636 11.5953Z" fill="#85C729"/>
</g>
<path d="M10.7189 15.8042C11.1776 14.9323 10.2552 13.9808 9.38998 14.4333L4.91403 16.7739C4.31906 17.085 4.19154 17.8929 4.66097 18.3772L6.76422 20.5468C7.23365 21.031 8.03082 20.9139 8.34621 20.3144L10.7189 15.8042Z" fill="#358F14"/>
<path d="M10.7189 15.8042C11.1776 14.9323 10.2552 13.9808 9.38998 14.4333L4.91403 16.7739C4.31906 17.085 4.19154 17.8929 4.66097 18.3772L6.76422 20.5468C7.23365 21.031 8.03082 20.9139 8.34621 20.3144L10.7189 15.8042Z" fill="#85C729"/>
<path d="M15.1544 14.5832C14.3039 14.0438 13.291 14.982 13.7415 15.8919L16.3008 21.0624C16.5958 21.6582 17.3696 21.8028 17.8554 21.3528L20.1288 19.2471C20.6147 18.7971 20.5441 18.001 19.9872 17.6479L15.1544 14.5832Z" fill="#358F14"/>
<path d="M15.1544 14.5832C14.3039 14.0438 13.291 14.982 13.7415 15.8919L16.3008 21.0624C16.5958 21.6582 17.3696 21.8028 17.8554 21.3528L20.1288 19.2471C20.6147 18.7971 20.5441 18.001 19.9872 17.6479L15.1544 14.5832Z" fill="#85C729"/>
<path d="M9.66913 16.9621L7.45162 20.0593C7.37004 20.1733 7.40081 20.3339 7.51875 20.4098V20.4098C7.63669 20.4857 7.7928 20.4453 7.85937 20.3218L9.66913 16.9621Z" fill="#D9D9D9"/>
<path d="M10.6236 13.4429L6.92314 14.1467C6.78406 14.1732 6.69544 14.3119 6.72985 14.4493V14.4493C6.76427 14.5867 6.9074 14.6656 7.042 14.6213L10.6236 13.4429Z" fill="#D9D9D9"/>
<path d="M15.5887 13.5938L19.1478 14.8411C19.2815 14.888 19.426 14.8119 19.463 14.6752V14.6752C19.5 14.5385 19.414 14.3981 19.2755 14.369L15.5887 13.5938Z" fill="#D9D9D9"/>
<path d="M11.0602 11.4408L9.87971 9.25345C9.84654 9.19199 9.76916 9.17146 9.70995 9.20841V9.20841C9.65074 9.24537 9.6338 9.32477 9.67278 9.3826L11.0602 11.4408Z" fill="#D9D9D9"/>
<path d="M13.7784 11.8209L15.8464 10.4785C15.9052 10.4403 15.9208 10.3601 15.8806 10.3026V10.3026C15.8403 10.2451 15.7606 10.2337 15.7057 10.2776L13.7784 11.8209Z" fill="#D9D9D9"/>
<path d="M13.443 14.512L14.6119 16.7058C14.6448 16.7675 14.722 16.7884 14.7814 16.7518V16.7518C14.8408 16.7151 14.8582 16.6358 14.8195 16.5778L13.443 14.512Z" fill="#D9D9D9"/>
<path d="M13.1911 17.0273L14.3811 21.3666C14.4182 21.5019 14.5609 21.5773 14.6935 21.5317V21.5317C14.8262 21.486 14.8943 21.338 14.8428 21.2077L13.1911 17.0273Z" fill="#D9D9D9"/>
<path d="M12.5417 11.0743L13.8106 6.75773C13.8501 6.62332 13.7689 6.48247 13.6327 6.44933V6.44933C13.4965 6.41618 13.3612 6.50433 13.3365 6.64233L12.5417 11.0743Z" fill="#D9D9D9"/>
<path d="M30.2858 13C30.2858 18.9092 34.9995 23.686 40.7977 23.686C46.5959 23.686 51.3096 18.9092 51.3096 13C51.3096 7.09083 46.5959 2.31395 40.7977 2.31395C34.9995 2.31395 30.2858 7.09083 30.2858 13Z" fill="#E7EAE3" stroke="#9BE139"/>
<ellipse cx="9.22619" cy="9.37209" rx="9.22619" ry="9.37209" transform="matrix(-1 0 0 1 50.0238 3.62791)" fill="#ACED51"/>
<path d="M41.1348 15.1038C40.8048 14.2523 39.5999 14.2523 39.2699 15.1038L36.8637 21.3131C36.6097 21.9685 37.0933 22.6744 37.7961 22.6744H42.6085C43.3114 22.6744 43.7949 21.9685 43.541 21.3131L41.1348 15.1038Z" fill="#358F14"/>
<path d="M41.1348 15.1038C40.8048 14.2523 39.5999 14.2523 39.2699 15.1038L36.8637 21.3131C36.6097 21.9685 37.0933 22.6744 37.7961 22.6744H42.6085C43.3114 22.6744 43.7949 21.9685 43.541 21.3131L41.1348 15.1038Z" fill="#85C729"/>
<g filter="url(#filter3_i_49_440)">
<path d="M39.2699 10.8962C39.5999 11.7477 40.8048 11.7477 41.1348 10.8962L43.541 4.68691C43.7949 4.03155 43.3114 3.32558 42.6085 3.32558H37.7961C37.0933 3.32558 36.6097 4.03155 36.8637 4.68691L39.2699 10.8962Z" fill="#358F14"/>
<path d="M39.2699 10.8962C39.5999 11.7477 40.8048 11.7477 41.1348 10.8962L43.541 4.68691C43.7949 4.03155 43.3114 3.32558 42.6085 3.32558H37.7961C37.0933 3.32558 36.6097 4.03155 36.8637 4.68691L39.2699 10.8962Z" fill="#85C729"/>
</g>
<path d="M37.911 13.94C38.7893 13.6211 38.7893 12.3789 37.911 12.06L32.4663 10.0833C31.8142 9.84653 31.125 10.3295 31.125 11.0232V14.9768C31.125 15.6705 31.8142 16.1535 32.4663 15.9167L37.911 13.94Z" fill="#358F14"/>
<path d="M37.911 13.94C38.7893 13.6211 38.7893 12.3789 37.911 12.06L32.4663 10.0833C31.8142 9.84653 31.125 10.3295 31.125 11.0232V14.9768C31.125 15.6705 31.8142 16.1535 32.4663 15.9167L37.911 13.94Z" fill="#85C729"/>
<path d="M42.7017 12.0777C41.8836 12.4204 41.8836 13.5796 42.7017 13.9223L48.4886 16.3466C49.1475 16.6226 49.875 16.1386 49.875 15.4242V10.5758C49.875 9.86139 49.1475 9.37742 48.4886 9.65345L42.7017 12.0777Z" fill="#358F14"/>
<path d="M42.7017 12.0777C41.8836 12.4204 41.8836 13.5796 42.7017 13.9223L48.4886 16.3466C49.1475 16.6226 49.875 16.1386 49.875 15.4242V10.5758C49.875 9.86139 49.1475 9.37742 48.4886 9.65345L42.7017 12.0777Z" fill="#85C729"/>
<g filter="url(#filter4_i_49_440)">
<path d="M41.8654 10.1263C41.4044 11.023 42.3869 11.9741 43.2465 11.4633L48.0226 8.62468C48.5919 8.28632 48.6831 7.48803 48.2053 7.02546L45.9909 4.88168C45.5131 4.41912 44.7325 4.55 44.4272 5.14388L41.8654 10.1263Z" fill="#358F14"/>
<path d="M41.8654 10.1263C41.4044 11.023 42.3869 11.9741 43.2465 11.4633L48.0226 8.62468C48.5919 8.28632 48.6831 7.48803 48.2053 7.02546L45.9909 4.88168C45.5131 4.41912 44.7325 4.55 44.4272 5.14388L41.8654 10.1263Z" fill="#85C729"/>
</g>
<g filter="url(#filter5_i_49_440)">
<path d="M37.3264 11.5953C38.2004 11.9992 39.072 11.0335 38.6002 10.1839L36.253 5.95744C35.9214 5.36027 35.1127 5.26535 34.6572 5.77013L32.6559 7.9876C32.2003 8.49238 32.3635 9.30248 32.9779 9.58634L37.3264 11.5953Z" fill="#358F14"/>
<path d="M37.3264 11.5953C38.2004 11.9992 39.072 11.0335 38.6002 10.1839L36.253 5.95744C35.9214 5.36027 35.1127 5.26535 34.6572 5.77013L32.6559 7.9876C32.2003 8.49238 32.3635 9.30248 32.9779 9.58634L37.3264 11.5953Z" fill="#85C729"/>
</g>
<path d="M38.7189 15.8042C39.1776 14.9323 38.2552 13.9808 37.39 14.4333L32.914 16.7739C32.3191 17.085 32.1915 17.8929 32.661 18.3772L34.7642 20.5468C35.2336 21.031 36.0308 20.9139 36.3462 20.3144L38.7189 15.8042Z" fill="#358F14"/>
<path d="M38.7189 15.8042C39.1776 14.9323 38.2552 13.9808 37.39 14.4333L32.914 16.7739C32.3191 17.085 32.1915 17.8929 32.661 18.3772L34.7642 20.5468C35.2336 21.031 36.0308 20.9139 36.3462 20.3144L38.7189 15.8042Z" fill="#85C729"/>
<path d="M43.1544 14.5832C42.3039 14.0438 41.291 14.982 41.7415 15.8919L44.3008 21.0624C44.5958 21.6582 45.3696 21.8028 45.8554 21.3528L48.1288 19.2471C48.6147 18.7971 48.5441 18.001 47.9872 17.6479L43.1544 14.5832Z" fill="#358F14"/>
<path d="M43.1544 14.5832C42.3039 14.0438 41.291 14.982 41.7415 15.8919L44.3008 21.0624C44.5958 21.6582 45.3696 21.8028 45.8554 21.3528L48.1288 19.2471C48.6147 18.7971 48.5441 18.001 47.9872 17.6479L43.1544 14.5832Z" fill="#85C729"/>
<path d="M37.6691 16.9621L35.4516 20.0593C35.37 20.1733 35.4008 20.3339 35.5187 20.4098V20.4098C35.6367 20.4857 35.7928 20.4453 35.8594 20.3218L37.6691 16.9621Z" fill="#D9D9D9"/>
<path d="M38.6236 13.4429L34.9231 14.1467C34.7841 14.1732 34.6954 14.3119 34.7299 14.4493V14.4493C34.7643 14.5867 34.9074 14.6656 35.042 14.6213L38.6236 13.4429Z" fill="#D9D9D9"/>
<path d="M43.5887 13.5938L47.1478 14.8411C47.2815 14.888 47.426 14.8119 47.463 14.6752V14.6752C47.5 14.5385 47.414 14.3981 47.2755 14.369L43.5887 13.5938Z" fill="#D9D9D9"/>
<path d="M39.0602 11.4408L37.8797 9.25345C37.8465 9.19199 37.7692 9.17146 37.7099 9.20841V9.20841C37.6507 9.24537 37.6338 9.32477 37.6728 9.3826L39.0602 11.4408Z" fill="#D9D9D9"/>
<path d="M41.7784 11.8209L43.8464 10.4785C43.9052 10.4403 43.9208 10.3601 43.8806 10.3026V10.3026C43.8403 10.2451 43.7606 10.2337 43.7057 10.2776L41.7784 11.8209Z" fill="#D9D9D9"/>
<path d="M41.443 14.512L42.6119 16.7058C42.6448 16.7675 42.722 16.7884 42.7814 16.7518V16.7518C42.8408 16.7151 42.8582 16.6358 42.8195 16.5778L41.443 14.512Z" fill="#D9D9D9"/>
<path d="M41.1911 17.0273L42.3811 21.3666C42.4182 21.5019 42.5609 21.5773 42.6935 21.5317V21.5317C42.8262 21.486 42.8943 21.338 42.8428 21.2077L41.1911 17.0273Z" fill="#D9D9D9"/>
<path d="M40.5417 11.0743L41.8106 6.75773C41.8501 6.62332 41.7689 6.48247 41.6327 6.44933V6.44933C41.4965 6.41618 41.3612 6.50433 41.3365 6.64233L40.5417 11.0743Z" fill="#D9D9D9"/>
<path d="M58.2858 13C58.2858 18.9092 62.9995 23.686 68.7977 23.686C74.5959 23.686 79.3096 18.9092 79.3096 13C79.3096 7.09083 74.5959 2.31395 68.7977 2.31395C62.9995 2.31395 58.2858 7.09083 58.2858 13Z" fill="#E7EAE3" stroke="#9BE139"/>
<ellipse cx="9.22619" cy="9.37209" rx="9.22619" ry="9.37209" transform="matrix(-1 0 0 1 78.0238 3.62791)" fill="#ACED51"/>
<path d="M69.1348 15.1038C68.8048 14.2523 67.5999 14.2523 67.2699 15.1038L64.8637 21.3131C64.6097 21.9685 65.0933 22.6744 65.7961 22.6744H70.6085C71.3114 22.6744 71.7949 21.9685 71.541 21.3131L69.1348 15.1038Z" fill="#358F14"/>
<path d="M69.1348 15.1038C68.8048 14.2523 67.5999 14.2523 67.2699 15.1038L64.8637 21.3131C64.6097 21.9685 65.0933 22.6744 65.7961 22.6744H70.6085C71.3114 22.6744 71.7949 21.9685 71.541 21.3131L69.1348 15.1038Z" fill="#85C729"/>
<g filter="url(#filter6_i_49_440)">
<path d="M67.2699 10.8962C67.5999 11.7477 68.8048 11.7477 69.1348 10.8962L71.541 4.68691C71.7949 4.03155 71.3114 3.32558 70.6085 3.32558H65.7961C65.0933 3.32558 64.6097 4.03155 64.8637 4.68691L67.2699 10.8962Z" fill="#358F14"/>
<path d="M67.2699 10.8962C67.5999 11.7477 68.8048 11.7477 69.1348 10.8962L71.541 4.68691C71.7949 4.03155 71.3114 3.32558 70.6085 3.32558H65.7961C65.0933 3.32558 64.6097 4.03155 64.8637 4.68691L67.2699 10.8962Z" fill="#85C729"/>
</g>
<path d="M65.911 13.94C66.7893 13.6211 66.7893 12.3789 65.911 12.06L60.4663 10.0833C59.8142 9.84653 59.125 10.3295 59.125 11.0232V14.9768C59.125 15.6705 59.8142 16.1535 60.4663 15.9167L65.911 13.94Z" fill="#358F14"/>
<path d="M65.911 13.94C66.7893 13.6211 66.7893 12.3789 65.911 12.06L60.4663 10.0833C59.8142 9.84653 59.125 10.3295 59.125 11.0232V14.9768C59.125 15.6705 59.8142 16.1535 60.4663 15.9167L65.911 13.94Z" fill="#85C729"/>
<path d="M70.7017 12.0777C69.8836 12.4204 69.8836 13.5796 70.7017 13.9223L76.4886 16.3466C77.1475 16.6226 77.875 16.1386 77.875 15.4242V10.5758C77.875 9.86139 77.1475 9.37742 76.4886 9.65345L70.7017 12.0777Z" fill="#358F14"/>
<path d="M70.7017 12.0777C69.8836 12.4204 69.8836 13.5796 70.7017 13.9223L76.4886 16.3466C77.1475 16.6226 77.875 16.1386 77.875 15.4242V10.5758C77.875 9.86139 77.1475 9.37742 76.4886 9.65345L70.7017 12.0777Z" fill="#85C729"/>
<g filter="url(#filter7_i_49_440)">
<path d="M69.8654 10.1263C69.4044 11.023 70.3869 11.9741 71.2465 11.4633L76.0226 8.62468C76.5919 8.28632 76.6831 7.48803 76.2053 7.02546L73.9909 4.88168C73.5131 4.41912 72.7325 4.55 72.4272 5.14388L69.8654 10.1263Z" fill="#358F14"/>
<path d="M69.8654 10.1263C69.4044 11.023 70.3869 11.9741 71.2465 11.4633L76.0226 8.62468C76.5919 8.28632 76.6831 7.48803 76.2053 7.02546L73.9909 4.88168C73.5131 4.41912 72.7325 4.55 72.4272 5.14388L69.8654 10.1263Z" fill="#85C729"/>
</g>
<g filter="url(#filter8_i_49_440)">
<path d="M65.3264 11.5953C66.2004 11.9992 67.072 11.0335 66.6002 10.1839L64.253 5.95744C63.9214 5.36027 63.1127 5.26535 62.6572 5.77013L60.6559 7.9876C60.2003 8.49238 60.3635 9.30248 60.9779 9.58634L65.3264 11.5953Z" fill="#358F14"/>
<path d="M65.3264 11.5953C66.2004 11.9992 67.072 11.0335 66.6002 10.1839L64.253 5.95744C63.9214 5.36027 63.1127 5.26535 62.6572 5.77013L60.6559 7.9876C60.2003 8.49238 60.3635 9.30248 60.9779 9.58634L65.3264 11.5953Z" fill="#85C729"/>
</g>
<path d="M66.7189 15.8042C67.1776 14.9323 66.2552 13.9808 65.39 14.4333L60.914 16.7739C60.3191 17.085 60.1915 17.8929 60.661 18.3772L62.7642 20.5468C63.2336 21.031 64.0308 20.9139 64.3462 20.3144L66.7189 15.8042Z" fill="#358F14"/>
<path d="M66.7189 15.8042C67.1776 14.9323 66.2552 13.9808 65.39 14.4333L60.914 16.7739C60.3191 17.085 60.1915 17.8929 60.661 18.3772L62.7642 20.5468C63.2336 21.031 64.0308 20.9139 64.3462 20.3144L66.7189 15.8042Z" fill="#85C729"/>
<path d="M71.1544 14.5832C70.3039 14.0438 69.291 14.982 69.7415 15.8919L72.3008 21.0624C72.5958 21.6582 73.3696 21.8028 73.8554 21.3528L76.1288 19.2471C76.6147 18.7971 76.5441 18.001 75.9872 17.6479L71.1544 14.5832Z" fill="#358F14"/>
<path d="M71.1544 14.5832C70.3039 14.0438 69.291 14.982 69.7415 15.8919L72.3008 21.0624C72.5958 21.6582 73.3696 21.8028 73.8554 21.3528L76.1288 19.2471C76.6147 18.7971 76.5441 18.001 75.9872 17.6479L71.1544 14.5832Z" fill="#85C729"/>
<path d="M65.6691 16.9621L63.4516 20.0593C63.37 20.1733 63.4008 20.3339 63.5187 20.4098V20.4098C63.6367 20.4857 63.7928 20.4453 63.8594 20.3218L65.6691 16.9621Z" fill="#D9D9D9"/>
<path d="M66.6236 13.4429L62.9231 14.1467C62.7841 14.1732 62.6954 14.3119 62.7299 14.4493V14.4493C62.7643 14.5867 62.9074 14.6656 63.042 14.6213L66.6236 13.4429Z" fill="#D9D9D9"/>
<path d="M71.5887 13.5938L75.1478 14.8411C75.2815 14.888 75.426 14.8119 75.463 14.6752V14.6752C75.5 14.5385 75.414 14.3981 75.2755 14.369L71.5887 13.5938Z" fill="#D9D9D9"/>
<path d="M67.0602 11.4408L65.8797 9.25345C65.8465 9.19199 65.7692 9.17146 65.7099 9.20841V9.20841C65.6507 9.24537 65.6338 9.32477 65.6728 9.3826L67.0602 11.4408Z" fill="#D9D9D9"/>
<path d="M69.7784 11.8209L71.8464 10.4785C71.9052 10.4403 71.9208 10.3601 71.8806 10.3026V10.3026C71.8403 10.2451 71.7606 10.2337 71.7057 10.2776L69.7784 11.8209Z" fill="#D9D9D9"/>
<path d="M69.443 14.512L70.6119 16.7058C70.6448 16.7675 70.722 16.7884 70.7814 16.7518V16.7518C70.8408 16.7151 70.8582 16.6358 70.8195 16.5778L69.443 14.512Z" fill="#D9D9D9"/>
<path d="M69.1911 17.0273L70.3811 21.3666C70.4182 21.5019 70.5609 21.5773 70.6935 21.5317V21.5317C70.8262 21.486 70.8943 21.338 70.8428 21.2077L69.1911 17.0273Z" fill="#D9D9D9"/>
<path d="M68.5417 11.0743L69.8106 6.75773C69.8501 6.62332 69.7689 6.48247 69.6327 6.44933V6.44933C69.4965 6.41618 69.3612 6.50433 69.3365 6.64233L68.5417 11.0743Z" fill="#D9D9D9"/>
<defs>
<filter id="filter0_i_49_440" x="8.79517" y="3.32558" width="6.81433" height="12.2092" filterUnits="userSpaceOnUse" color-interpolation-filters="sRGB">
<feFlood flood-opacity="0" result="BackgroundImageFix"/>
<feBlend mode="normal" in="SourceGraphic" in2="BackgroundImageFix" result="shape"/>
<feColorMatrix in="SourceAlpha" type="matrix" values="0 0 0 0 0 0 0 0 0 0 0 0 0 0 0 0 0 0 127 0" result="hardAlpha"/>
<feOffset dy="4"/>
<feGaussianBlur stdDeviation="3"/>
<feComposite in2="hardAlpha" operator="arithmetic" k2="-1" k3="1"/>
<feColorMatrix type="matrix" values="0 0 0 0 0 0 0 0 0 0 0 0 0 0 0 0 0 0 0.11 0"/>
<feBlend mode="normal" in2="shape" result="effect1_innerShadow_49_440"/>
</filter>
<filter id="filter1_i_49_440" x="13.7476" y="4.60301" width="6.76575" height="11.0036" filterUnits="userSpaceOnUse" color-interpolation-filters="sRGB">
<feFlood flood-opacity="0" result="BackgroundImageFix"/>
<feBlend mode="normal" in="SourceGraphic" in2="BackgroundImageFix" result="shape"/>
<feColorMatrix in="SourceAlpha" type="matrix" values="0 0 0 0 0 0 0 0 0 0 0 0 0 0 0 0 0 0 127 0" result="hardAlpha"/>
<feOffset dy="4"/>
<feGaussianBlur stdDeviation="5.5"/>
<feComposite in2="hardAlpha" operator="arithmetic" k2="-1" k3="1"/>
<feColorMatrix type="matrix" values="0 0 0 0 0 0 0 0 0 0 0 0 0 0 0 0 0 0 0.1 0"/>
<feBlend mode="normal" in2="shape" result="effect1_innerShadow_49_440"/>
</filter>
<filter id="filter2_i_49_440" x="4.39526" y="5.4438" width="6.33765" height="10.2463" filterUnits="userSpaceOnUse" color-interpolation-filters="sRGB">
<feFlood flood-opacity="0" result="BackgroundImageFix"/>
<feBlend mode="normal" in="SourceGraphic" in2="BackgroundImageFix" result="shape"/>
<feColorMatrix in="SourceAlpha" type="matrix" values="0 0 0 0 0 0 0 0 0 0 0 0 0 0 0 0 0 0 127 0" result="hardAlpha"/>
<feOffset dy="4"/>
<feGaussianBlur stdDeviation="2"/>
<feComposite in2="hardAlpha" operator="arithmetic" k2="-1" k3="1"/>
<feColorMatrix type="matrix" values="0 0 0 0 0 0 0 0 0 0 0 0 0 0 0 0 0 0 0.08 0"/>
<feBlend mode="normal" in2="shape" result="effect1_innerShadow_49_440"/>
</filter>
<filter id="filter3_i_49_440" x="36.7952" y="3.32558" width="6.81433" height="12.2092" filterUnits="userSpaceOnUse" color-interpolation-filters="sRGB">
<feFlood flood-opacity="0" result="BackgroundImageFix"/>
<feBlend mode="normal" in="SourceGraphic" in2="BackgroundImageFix" result="shape"/>
<feColorMatrix in="SourceAlpha" type="matrix" values="0 0 0 0 0 0 0 0 0 0 0 0 0 0 0 0 0 0 127 0" result="hardAlpha"/>
<feOffset dy="4"/>
<feGaussianBlur stdDeviation="3"/>
<feComposite in2="hardAlpha" operator="arithmetic" k2="-1" k3="1"/>
<feColorMatrix type="matrix" values="0 0 0 0 0 0 0 0 0 0 0 0 0 0 0 0 0 0 0.11 0"/>
<feBlend mode="normal" in2="shape" result="effect1_innerShadow_49_440"/>
</filter>
<filter id="filter4_i_49_440" x="41.7476" y="4.60301" width="6.76575" height="11.0036" filterUnits="userSpaceOnUse" color-interpolation-filters="sRGB">
<feFlood flood-opacity="0" result="BackgroundImageFix"/>
<feBlend mode="normal" in="SourceGraphic" in2="BackgroundImageFix" result="shape"/>
<feColorMatrix in="SourceAlpha" type="matrix" values="0 0 0 0 0 0 0 0 0 0 0 0 0 0 0 0 0 0 127 0" result="hardAlpha"/>
<feOffset dy="4"/>
<feGaussianBlur stdDeviation="5.5"/>
<feComposite in2="hardAlpha" operator="arithmetic" k2="-1" k3="1"/>
<feColorMatrix type="matrix" values="0 0 0 0 0 0 0 0 0 0 0 0 0 0 0 0 0 0 0.1 0"/>
<feBlend mode="normal" in2="shape" result="effect1_innerShadow_49_440"/>
</filter>
<filter id="filter5_i_49_440" x="32.3953" y="5.4438" width="6.33765" height="10.2463" filterUnits="userSpaceOnUse" color-interpolation-filters="sRGB">
<feFlood flood-opacity="0" result="BackgroundImageFix"/>
<feBlend mode="normal" in="SourceGraphic" in2="BackgroundImageFix" result="shape"/>
<feColorMatrix in="SourceAlpha" type="matrix" values="0 0 0 0 0 0 0 0 0 0 0 0 0 0 0 0 0 0 127 0" result="hardAlpha"/>
<feOffset dy="4"/>
<feGaussianBlur stdDeviation="2"/>
<feComposite in2="hardAlpha" operator="arithmetic" k2="-1" k3="1"/>
<feColorMatrix type="matrix" values="0 0 0 0 0 0 0 0 0 0 0 0 0 0 0 0 0 0 0.08 0"/>
<feBlend mode="normal" in2="shape" result="effect1_innerShadow_49_440"/>
</filter>
<filter id="filter6_i_49_440" x="64.7952" y="3.32558" width="6.81433" height="12.2092" filterUnits="userSpaceOnUse" color-interpolation-filters="sRGB">
<feFlood flood-opacity="0" result="BackgroundImageFix"/>
<feBlend mode="normal" in="SourceGraphic" in2="BackgroundImageFix" result="shape"/>
<feColorMatrix in="SourceAlpha" type="matrix" values="0 0 0 0 0 0 0 0 0 0 0 0 0 0 0 0 0 0 127 0" result="hardAlpha"/>
<feOffset dy="4"/>
<feGaussianBlur stdDeviation="3"/>
<feComposite in2="hardAlpha" operator="arithmetic" k2="-1" k3="1"/>
<feColorMatrix type="matrix" values="0 0 0 0 0 0 0 0 0 0 0 0 0 0 0 0 0 0 0.11 0"/>
<feBlend mode="normal" in2="shape" result="effect1_innerShadow_49_440"/>
</filter>
<filter id="filter7_i_49_440" x="69.7476" y="4.60301" width="6.76575" height="11.0036" filterUnits="userSpaceOnUse" color-interpolation-filters="sRGB">
<feFlood flood-opacity="0" result="BackgroundImageFix"/>
<feBlend mode="normal" in="SourceGraphic" in2="BackgroundImageFix" result="shape"/>
<feColorMatrix in="SourceAlpha" type="matrix" values="0 0 0 0 0 0 0 0 0 0 0 0 0 0 0 0 0 0 127 0" result="hardAlpha"/>
<feOffset dy="4"/>
<feGaussianBlur stdDeviation="5.5"/>
<feComposite in2="hardAlpha" operator="arithmetic" k2="-1" k3="1"/>
<feColorMatrix type="matrix" values="0 0 0 0 0 0 0 0 0 0 0 0 0 0 0 0 0 0 0.1 0"/>
<feBlend mode="normal" in2="shape" result="effect1_innerShadow_49_440"/>
</filter>
<filter id="filter8_i_49_440" x="60.3953" y="5.4438" width="6.33765" height="10.2463" filterUnits="userSpaceOnUse" color-interpolation-filters="sRGB">
<feFlood flood-opacity="0" result="BackgroundImageFix"/>
<feBlend mode="normal" in="SourceGraphic" in2="BackgroundImageFix" result="shape"/>
<feColorMatrix in="SourceAlpha" type="matrix" values="0 0 0 0 0 0 0 0 0 0 0 0 0 0 0 0 0 0 127 0" result="hardAlpha"/>
<feOffset dy="4"/>
<feGaussianBlur stdDeviation="2"/>
<feComposite in2="hardAlpha" operator="arithmetic" k2="-1" k3="1"/>
<feColorMatrix type="matrix" values="0 0 0 0 0 0 0 0 0 0 0 0 0 0 0 0 0 0 0.08 0"/>
<feBlend mode="normal" in2="shape" result="effect1_innerShadow_49_440"/>
</filter>
</defs>
</svg>
