<svg width="137" height="26" viewBox="0 0 137 26" fill="none" xmlns="http://www.w3.org/2000/svg">
<path d="M2.28576 13C2.28576 18.9092 6.99947 23.6861 12.7977 23.6861C18.5959 23.6861 23.3096 18.9092 23.3096 13C23.3096 7.09085 18.5959 2.31396 12.7977 2.31396C6.99947 2.31396 2.28576 7.09085 2.28576 13Z" fill="#E7EAE3" stroke="#9BE139"/>
<ellipse cx="9.22619" cy="9.37209" rx="9.22619" ry="9.37209" transform="matrix(-1 0 0 1 22.0238 3.6279)" fill="#ACED51"/>
<path d="M13.1348 15.1038C12.8048 14.2523 11.5999 14.2523 11.2699 15.1038L8.8637 21.3131C8.60973 21.9684 9.09328 22.6744 9.79614 22.6744H14.6085C15.3114 22.6744 15.7949 21.9684 15.541 21.3131L13.1348 15.1038Z" fill="#358F14"/>
<path d="M13.1348 15.1038C12.8048 14.2523 11.5999 14.2523 11.2699 15.1038L8.8637 21.3131C8.60973 21.9684 9.09328 22.6744 9.79614 22.6744H14.6085C15.3114 22.6744 15.7949 21.9684 15.541 21.3131L13.1348 15.1038Z" fill="#85C729"/>
<g filter="url(#filter0_i_49_438)">
<path d="M11.2699 10.8962C11.5999 11.7477 12.8048 11.7477 13.1348 10.8962L15.541 4.68693C15.7949 4.03156 15.3114 3.32559 14.6085 3.32559H9.79612C9.09326 3.32559 8.60972 4.03156 8.86368 4.68693L11.2699 10.8962Z" fill="#358F14"/>
<path d="M11.2699 10.8962C11.5999 11.7477 12.8048 11.7477 13.1348 10.8962L15.541 4.68693C15.7949 4.03156 15.3114 3.32559 14.6085 3.32559H9.79612C9.09326 3.32559 8.60972 4.03156 8.86368 4.68693L11.2699 10.8962Z" fill="#85C729"/>
</g>
<path d="M9.91098 13.94C10.7893 13.6211 10.7893 12.3789 9.91098 12.06L4.46626 10.0833C3.81416 9.84653 3.125 10.3295 3.125 11.0232L3.125 14.9768C3.125 15.6705 3.81416 16.1535 4.46626 15.9167L9.91098 13.94Z" fill="#358F14"/>
<path d="M9.91098 13.94C10.7893 13.6211 10.7893 12.3789 9.91098 12.06L4.46626 10.0833C3.81416 9.84653 3.125 10.3295 3.125 11.0232L3.125 14.9768C3.125 15.6705 3.81416 16.1535 4.46626 15.9167L9.91098 13.94Z" fill="#85C729"/>
<path d="M14.7017 12.0777C13.8836 12.4204 13.8836 13.5796 14.7017 13.9223L20.4886 16.3466C21.1475 16.6226 21.875 16.1386 21.875 15.4242V10.5758C21.875 9.86139 21.1475 9.37742 20.4886 9.65345L14.7017 12.0777Z" fill="#358F14"/>
<path d="M14.7017 12.0777C13.8836 12.4204 13.8836 13.5796 14.7017 13.9223L20.4886 16.3466C21.1475 16.6226 21.875 16.1386 21.875 15.4242V10.5758C21.875 9.86139 21.1475 9.37742 20.4886 9.65345L14.7017 12.0777Z" fill="#85C729"/>
<g filter="url(#filter1_i_49_438)">
<path d="M13.8654 10.1263C13.4044 11.023 14.3869 11.9741 15.2465 11.4633L20.0226 8.62468C20.5919 8.28632 20.6831 7.48803 20.2053 7.02546L17.9909 4.88168C17.5131 4.41912 16.7325 4.55 16.4272 5.14388L13.8654 10.1263Z" fill="#358F14"/>
<path d="M13.8654 10.1263C13.4044 11.023 14.3869 11.9741 15.2465 11.4633L20.0226 8.62468C20.5919 8.28632 20.6831 7.48803 20.2053 7.02546L17.9909 4.88168C17.5131 4.41912 16.7325 4.55 16.4272 5.14388L13.8654 10.1263Z" fill="#85C729"/>
</g>
<g filter="url(#filter2_i_49_438)">
<path d="M9.32636 11.5953C10.2004 11.9992 11.072 11.0335 10.6002 10.1839L8.25301 5.95744C7.92137 5.36027 7.11274 5.26535 6.65718 5.77013L4.65589 7.9876C4.20032 8.49238 4.36349 9.30248 4.9779 9.58634L9.32636 11.5953Z" fill="#358F14"/>
<path d="M9.32636 11.5953C10.2004 11.9992 11.072 11.0335 10.6002 10.1839L8.25301 5.95744C7.92137 5.36027 7.11274 5.26535 6.65718 5.77013L4.65589 7.9876C4.20032 8.49238 4.36349 9.30248 4.9779 9.58634L9.32636 11.5953Z" fill="#85C729"/>
</g>
<path d="M10.7189 15.8042C11.1776 14.9323 10.2552 13.9808 9.38998 14.4333L4.91403 16.7739C4.31906 17.085 4.19154 17.8929 4.66097 18.3772L6.76422 20.5468C7.23365 21.031 8.03082 20.9139 8.34621 20.3144L10.7189 15.8042Z" fill="#358F14"/>
<path d="M10.7189 15.8042C11.1776 14.9323 10.2552 13.9808 9.38998 14.4333L4.91403 16.7739C4.31906 17.085 4.19154 17.8929 4.66097 18.3772L6.76422 20.5468C7.23365 21.031 8.03082 20.9139 8.34621 20.3144L10.7189 15.8042Z" fill="#85C729"/>
<path d="M15.1544 14.5832C14.3039 14.0438 13.291 14.982 13.7415 15.8919L16.3008 21.0624C16.5958 21.6582 17.3696 21.8028 17.8554 21.3528L20.1288 19.2471C20.6147 18.7971 20.5441 18.001 19.9872 17.6479L15.1544 14.5832Z" fill="#358F14"/>
<path d="M15.1544 14.5832C14.3039 14.0438 13.291 14.982 13.7415 15.8919L16.3008 21.0624C16.5958 21.6582 17.3696 21.8028 17.8554 21.3528L20.1288 19.2471C20.6147 18.7971 20.5441 18.001 19.9872 17.6479L15.1544 14.5832Z" fill="#85C729"/>
<path d="M9.66913 16.9622L7.45162 20.0593C7.37004 20.1733 7.40081 20.3339 7.51875 20.4098V20.4098C7.63669 20.4857 7.7928 20.4454 7.85937 20.3218L9.66913 16.9622Z" fill="#D9D9D9"/>
<path d="M10.6236 13.4429L6.92314 14.1467C6.78406 14.1732 6.69544 14.3119 6.72985 14.4493V14.4493C6.76427 14.5867 6.9074 14.6656 7.042 14.6213L10.6236 13.4429Z" fill="#D9D9D9"/>
<path d="M15.5887 13.5939L19.1478 14.8412C19.2815 14.888 19.426 14.8119 19.463 14.6752V14.6752C19.5 14.5385 19.414 14.3981 19.2755 14.369L15.5887 13.5939Z" fill="#D9D9D9"/>
<path d="M11.0602 11.4408L9.87971 9.25345C9.84654 9.19199 9.76916 9.17146 9.70995 9.20841V9.20841C9.65074 9.24537 9.6338 9.32477 9.67278 9.3826L11.0602 11.4408Z" fill="#D9D9D9"/>
<path d="M13.7784 11.8209L15.8464 10.4785C15.9052 10.4403 15.9208 10.3601 15.8806 10.3026V10.3026C15.8403 10.2451 15.7606 10.2337 15.7057 10.2776L13.7784 11.8209Z" fill="#D9D9D9"/>
<path d="M13.443 14.512L14.6119 16.7058C14.6448 16.7675 14.722 16.7884 14.7814 16.7518V16.7518C14.8408 16.7151 14.8582 16.6358 14.8195 16.5778L13.443 14.512Z" fill="#D9D9D9"/>
<path d="M13.1911 17.0273L14.3811 21.3666C14.4182 21.5019 14.5609 21.5773 14.6935 21.5317V21.5317C14.8262 21.486 14.8943 21.338 14.8428 21.2077L13.1911 17.0273Z" fill="#D9D9D9"/>
<path d="M12.5417 11.0744L13.8106 6.75775C13.8501 6.62334 13.7689 6.48249 13.6327 6.44934V6.44934C13.4965 6.4162 13.3612 6.50434 13.3365 6.64235L12.5417 11.0744Z" fill="#D9D9D9"/>
<path d="M30.2858 13C30.2858 18.9092 34.9995 23.6861 40.7977 23.6861C46.5959 23.6861 51.3096 18.9092 51.3096 13C51.3096 7.09085 46.5959 2.31396 40.7977 2.31396C34.9995 2.31396 30.2858 7.09085 30.2858 13Z" fill="#E7EAE3" stroke="#9BE139"/>
<ellipse cx="9.22619" cy="9.37209" rx="9.22619" ry="9.37209" transform="matrix(-1 0 0 1 50.0238 3.6279)" fill="#ACED51"/>
<path d="M41.1348 15.1038C40.8048 14.2523 39.5999 14.2523 39.2699 15.1038L36.8637 21.3131C36.6097 21.9684 37.0933 22.6744 37.7961 22.6744H42.6085C43.3114 22.6744 43.7949 21.9684 43.541 21.3131L41.1348 15.1038Z" fill="#358F14"/>
<path d="M41.1348 15.1038C40.8048 14.2523 39.5999 14.2523 39.2699 15.1038L36.8637 21.3131C36.6097 21.9684 37.0933 22.6744 37.7961 22.6744H42.6085C43.3114 22.6744 43.7949 21.9684 43.541 21.3131L41.1348 15.1038Z" fill="#85C729"/>
<g filter="url(#filter3_i_49_438)">
<path d="M39.2699 10.8962C39.5999 11.7477 40.8048 11.7477 41.1348 10.8962L43.541 4.68693C43.7949 4.03156 43.3114 3.32559 42.6085 3.32559H37.7961C37.0933 3.32559 36.6097 4.03156 36.8637 4.68693L39.2699 10.8962Z" fill="#358F14"/>
<path d="M39.2699 10.8962C39.5999 11.7477 40.8048 11.7477 41.1348 10.8962L43.541 4.68693C43.7949 4.03156 43.3114 3.32559 42.6085 3.32559H37.7961C37.0933 3.32559 36.6097 4.03156 36.8637 4.68693L39.2699 10.8962Z" fill="#85C729"/>
</g>
<path d="M37.911 13.94C38.7893 13.6211 38.7893 12.3789 37.911 12.06L32.4663 10.0833C31.8142 9.84653 31.125 10.3295 31.125 11.0232V14.9768C31.125 15.6705 31.8142 16.1535 32.4663 15.9167L37.911 13.94Z" fill="#358F14"/>
<path d="M37.911 13.94C38.7893 13.6211 38.7893 12.3789 37.911 12.06L32.4663 10.0833C31.8142 9.84653 31.125 10.3295 31.125 11.0232V14.9768C31.125 15.6705 31.8142 16.1535 32.4663 15.9167L37.911 13.94Z" fill="#85C729"/>
<path d="M42.7017 12.0777C41.8836 12.4204 41.8836 13.5796 42.7017 13.9223L48.4886 16.3466C49.1475 16.6226 49.875 16.1386 49.875 15.4242V10.5758C49.875 9.86139 49.1475 9.37742 48.4886 9.65345L42.7017 12.0777Z" fill="#358F14"/>
<path d="M42.7017 12.0777C41.8836 12.4204 41.8836 13.5796 42.7017 13.9223L48.4886 16.3466C49.1475 16.6226 49.875 16.1386 49.875 15.4242V10.5758C49.875 9.86139 49.1475 9.37742 48.4886 9.65345L42.7017 12.0777Z" fill="#85C729"/>
<g filter="url(#filter4_i_49_438)">
<path d="M41.8654 10.1263C41.4044 11.023 42.3869 11.9741 43.2465 11.4633L48.0226 8.62468C48.5919 8.28632 48.6831 7.48803 48.2053 7.02546L45.9909 4.88168C45.5131 4.41912 44.7325 4.55 44.4272 5.14388L41.8654 10.1263Z" fill="#358F14"/>
<path d="M41.8654 10.1263C41.4044 11.023 42.3869 11.9741 43.2465 11.4633L48.0226 8.62468C48.5919 8.28632 48.6831 7.48803 48.2053 7.02546L45.9909 4.88168C45.5131 4.41912 44.7325 4.55 44.4272 5.14388L41.8654 10.1263Z" fill="#85C729"/>
</g>
<g filter="url(#filter5_i_49_438)">
<path d="M37.3264 11.5953C38.2004 11.9992 39.072 11.0335 38.6002 10.1839L36.253 5.95744C35.9214 5.36027 35.1127 5.26535 34.6572 5.77013L32.6559 7.9876C32.2003 8.49238 32.3635 9.30248 32.9779 9.58634L37.3264 11.5953Z" fill="#358F14"/>
<path d="M37.3264 11.5953C38.2004 11.9992 39.072 11.0335 38.6002 10.1839L36.253 5.95744C35.9214 5.36027 35.1127 5.26535 34.6572 5.77013L32.6559 7.9876C32.2003 8.49238 32.3635 9.30248 32.9779 9.58634L37.3264 11.5953Z" fill="#85C729"/>
</g>
<path d="M38.7189 15.8042C39.1776 14.9323 38.2552 13.9808 37.39 14.4333L32.914 16.7739C32.3191 17.085 32.1915 17.8929 32.661 18.3772L34.7642 20.5468C35.2336 21.031 36.0308 20.9139 36.3462 20.3144L38.7189 15.8042Z" fill="#358F14"/>
<path d="M38.7189 15.8042C39.1776 14.9323 38.2552 13.9808 37.39 14.4333L32.914 16.7739C32.3191 17.085 32.1915 17.8929 32.661 18.3772L34.7642 20.5468C35.2336 21.031 36.0308 20.9139 36.3462 20.3144L38.7189 15.8042Z" fill="#85C729"/>
<path d="M43.1544 14.5832C42.3039 14.0438 41.291 14.982 41.7415 15.8919L44.3008 21.0624C44.5958 21.6582 45.3696 21.8028 45.8554 21.3528L48.1288 19.2471C48.6147 18.7971 48.5441 18.001 47.9872 17.6479L43.1544 14.5832Z" fill="#358F14"/>
<path d="M43.1544 14.5832C42.3039 14.0438 41.291 14.982 41.7415 15.8919L44.3008 21.0624C44.5958 21.6582 45.3696 21.8028 45.8554 21.3528L48.1288 19.2471C48.6147 18.7971 48.5441 18.001 47.9872 17.6479L43.1544 14.5832Z" fill="#85C729"/>
<path d="M37.6691 16.9622L35.4516 20.0593C35.37 20.1733 35.4008 20.3339 35.5187 20.4098V20.4098C35.6367 20.4857 35.7928 20.4454 35.8594 20.3218L37.6691 16.9622Z" fill="#D9D9D9"/>
<path d="M38.6236 13.4429L34.9231 14.1467C34.7841 14.1732 34.6954 14.3119 34.7299 14.4493V14.4493C34.7643 14.5867 34.9074 14.6656 35.042 14.6213L38.6236 13.4429Z" fill="#D9D9D9"/>
<path d="M43.5887 13.5939L47.1478 14.8412C47.2815 14.888 47.426 14.8119 47.463 14.6752V14.6752C47.5 14.5385 47.414 14.3981 47.2755 14.369L43.5887 13.5939Z" fill="#D9D9D9"/>
<path d="M39.0602 11.4408L37.8797 9.25345C37.8465 9.19199 37.7692 9.17146 37.7099 9.20841V9.20841C37.6507 9.24537 37.6338 9.32477 37.6728 9.3826L39.0602 11.4408Z" fill="#D9D9D9"/>
<path d="M41.7784 11.8209L43.8464 10.4785C43.9052 10.4403 43.9208 10.3601 43.8806 10.3026V10.3026C43.8403 10.2451 43.7606 10.2337 43.7057 10.2776L41.7784 11.8209Z" fill="#D9D9D9"/>
<path d="M41.443 14.512L42.6119 16.7058C42.6448 16.7675 42.722 16.7884 42.7814 16.7518V16.7518C42.8408 16.7151 42.8582 16.6358 42.8195 16.5778L41.443 14.512Z" fill="#D9D9D9"/>
<path d="M41.1911 17.0273L42.3811 21.3666C42.4182 21.5019 42.5609 21.5773 42.6935 21.5317V21.5317C42.8262 21.486 42.8943 21.338 42.8428 21.2077L41.1911 17.0273Z" fill="#D9D9D9"/>
<path d="M40.5417 11.0744L41.8106 6.75775C41.8501 6.62334 41.7689 6.48249 41.6327 6.44934V6.44934C41.4965 6.4162 41.3612 6.50434 41.3365 6.64235L40.5417 11.0744Z" fill="#D9D9D9"/>
<path d="M58.2858 13C58.2858 18.9092 62.9995 23.6861 68.7977 23.6861C74.5959 23.6861 79.3096 18.9092 79.3096 13C79.3096 7.09085 74.5959 2.31396 68.7977 2.31396C62.9995 2.31396 58.2858 7.09085 58.2858 13Z" fill="#E7EAE3" stroke="#9BE139"/>
<ellipse cx="9.22619" cy="9.37209" rx="9.22619" ry="9.37209" transform="matrix(-1 0 0 1 78.0238 3.6279)" fill="#ACED51"/>
<path d="M69.1348 15.1038C68.8048 14.2523 67.5999 14.2523 67.2699 15.1038L64.8637 21.3131C64.6097 21.9684 65.0933 22.6744 65.7961 22.6744H70.6085C71.3114 22.6744 71.7949 21.9684 71.541 21.3131L69.1348 15.1038Z" fill="#358F14"/>
<path d="M69.1348 15.1038C68.8048 14.2523 67.5999 14.2523 67.2699 15.1038L64.8637 21.3131C64.6097 21.9684 65.0933 22.6744 65.7961 22.6744H70.6085C71.3114 22.6744 71.7949 21.9684 71.541 21.3131L69.1348 15.1038Z" fill="#85C729"/>
<g filter="url(#filter6_i_49_438)">
<path d="M67.2699 10.8962C67.5999 11.7477 68.8048 11.7477 69.1348 10.8962L71.541 4.68693C71.7949 4.03156 71.3114 3.32559 70.6085 3.32559H65.7961C65.0933 3.32559 64.6097 4.03156 64.8637 4.68693L67.2699 10.8962Z" fill="#358F14"/>
<path d="M67.2699 10.8962C67.5999 11.7477 68.8048 11.7477 69.1348 10.8962L71.541 4.68693C71.7949 4.03156 71.3114 3.32559 70.6085 3.32559H65.7961C65.0933 3.32559 64.6097 4.03156 64.8637 4.68693L67.2699 10.8962Z" fill="#85C729"/>
</g>
<path d="M65.911 13.94C66.7893 13.6211 66.7893 12.3789 65.911 12.06L60.4663 10.0833C59.8142 9.84653 59.125 10.3295 59.125 11.0232V14.9768C59.125 15.6705 59.8142 16.1535 60.4663 15.9167L65.911 13.94Z" fill="#358F14"/>
<path d="M65.911 13.94C66.7893 13.6211 66.7893 12.3789 65.911 12.06L60.4663 10.0833C59.8142 9.84653 59.125 10.3295 59.125 11.0232V14.9768C59.125 15.6705 59.8142 16.1535 60.4663 15.9167L65.911 13.94Z" fill="#85C729"/>
<path d="M70.7017 12.0777C69.8836 12.4204 69.8836 13.5796 70.7017 13.9223L76.4886 16.3466C77.1475 16.6226 77.875 16.1386 77.875 15.4242V10.5758C77.875 9.86139 77.1475 9.37742 76.4886 9.65345L70.7017 12.0777Z" fill="#358F14"/>
<path d="M70.7017 12.0777C69.8836 12.4204 69.8836 13.5796 70.7017 13.9223L76.4886 16.3466C77.1475 16.6226 77.875 16.1386 77.875 15.4242V10.5758C77.875 9.86139 77.1475 9.37742 76.4886 9.65345L70.7017 12.0777Z" fill="#85C729"/>
<g filter="url(#filter7_i_49_438)">
<path d="M69.8654 10.1263C69.4044 11.023 70.3869 11.9741 71.2465 11.4633L76.0226 8.62468C76.5919 8.28632 76.6831 7.48803 76.2053 7.02546L73.9909 4.88168C73.5131 4.41912 72.7325 4.55 72.4272 5.14388L69.8654 10.1263Z" fill="#358F14"/>
<path d="M69.8654 10.1263C69.4044 11.023 70.3869 11.9741 71.2465 11.4633L76.0226 8.62468C76.5919 8.28632 76.6831 7.48803 76.2053 7.02546L73.9909 4.88168C73.5131 4.41912 72.7325 4.55 72.4272 5.14388L69.8654 10.1263Z" fill="#85C729"/>
</g>
<g filter="url(#filter8_i_49_438)">
<path d="M65.3264 11.5953C66.2004 11.9992 67.072 11.0335 66.6002 10.1839L64.253 5.95744C63.9214 5.36027 63.1127 5.26535 62.6572 5.77013L60.6559 7.9876C60.2003 8.49238 60.3635 9.30248 60.9779 9.58634L65.3264 11.5953Z" fill="#358F14"/>
<path d="M65.3264 11.5953C66.2004 11.9992 67.072 11.0335 66.6002 10.1839L64.253 5.95744C63.9214 5.36027 63.1127 5.26535 62.6572 5.77013L60.6559 7.9876C60.2003 8.49238 60.3635 9.30248 60.9779 9.58634L65.3264 11.5953Z" fill="#85C729"/>
</g>
<path d="M66.7189 15.8042C67.1776 14.9323 66.2552 13.9808 65.39 14.4333L60.914 16.7739C60.3191 17.085 60.1915 17.8929 60.661 18.3772L62.7642 20.5468C63.2336 21.031 64.0308 20.9139 64.3462 20.3144L66.7189 15.8042Z" fill="#358F14"/>
<path d="M66.7189 15.8042C67.1776 14.9323 66.2552 13.9808 65.39 14.4333L60.914 16.7739C60.3191 17.085 60.1915 17.8929 60.661 18.3772L62.7642 20.5468C63.2336 21.031 64.0308 20.9139 64.3462 20.3144L66.7189 15.8042Z" fill="#85C729"/>
<path d="M71.1544 14.5832C70.3039 14.0438 69.291 14.982 69.7415 15.8919L72.3008 21.0624C72.5958 21.6582 73.3696 21.8028 73.8554 21.3528L76.1288 19.2471C76.6147 18.7971 76.5441 18.001 75.9872 17.6479L71.1544 14.5832Z" fill="#358F14"/>
<path d="M71.1544 14.5832C70.3039 14.0438 69.291 14.982 69.7415 15.8919L72.3008 21.0624C72.5958 21.6582 73.3696 21.8028 73.8554 21.3528L76.1288 19.2471C76.6147 18.7971 76.5441 18.001 75.9872 17.6479L71.1544 14.5832Z" fill="#85C729"/>
<path d="M65.6691 16.9622L63.4516 20.0593C63.37 20.1733 63.4008 20.3339 63.5187 20.4098V20.4098C63.6367 20.4857 63.7928 20.4454 63.8594 20.3218L65.6691 16.9622Z" fill="#D9D9D9"/>
<path d="M66.6236 13.4429L62.9231 14.1467C62.7841 14.1732 62.6954 14.3119 62.7299 14.4493V14.4493C62.7643 14.5867 62.9074 14.6656 63.042 14.6213L66.6236 13.4429Z" fill="#D9D9D9"/>
<path d="M71.5887 13.5939L75.1478 14.8412C75.2815 14.888 75.426 14.8119 75.463 14.6752V14.6752C75.5 14.5385 75.414 14.3981 75.2755 14.369L71.5887 13.5939Z" fill="#D9D9D9"/>
<path d="M67.0602 11.4408L65.8797 9.25345C65.8465 9.19199 65.7692 9.17146 65.7099 9.20841V9.20841C65.6507 9.24537 65.6338 9.32477 65.6728 9.3826L67.0602 11.4408Z" fill="#D9D9D9"/>
<path d="M69.7784 11.8209L71.8464 10.4785C71.9052 10.4403 71.9208 10.3601 71.8806 10.3026V10.3026C71.8403 10.2451 71.7606 10.2337 71.7057 10.2776L69.7784 11.8209Z" fill="#D9D9D9"/>
<path d="M69.443 14.512L70.6119 16.7058C70.6448 16.7675 70.722 16.7884 70.7814 16.7518V16.7518C70.8408 16.7151 70.8582 16.6358 70.8195 16.5778L69.443 14.512Z" fill="#D9D9D9"/>
<path d="M69.1911 17.0273L70.3811 21.3666C70.4182 21.5019 70.5609 21.5773 70.6935 21.5317V21.5317C70.8262 21.486 70.8943 21.338 70.8428 21.2077L69.1911 17.0273Z" fill="#D9D9D9"/>
<path d="M68.5417 11.0744L69.8106 6.75775C69.8501 6.62334 69.7689 6.48249 69.6327 6.44934V6.44934C69.4965 6.4162 69.3612 6.50434 69.3365 6.64235L68.5417 11.0744Z" fill="#D9D9D9"/>
<path d="M86.2858 13C86.2858 18.9092 90.9995 23.6861 96.7977 23.6861C102.596 23.6861 107.31 18.9092 107.31 13C107.31 7.09085 102.596 2.31396 96.7977 2.31396C90.9995 2.31396 86.2858 7.09085 86.2858 13Z" fill="#E7EAE3" stroke="#9BE139"/>
<ellipse cx="9.22619" cy="9.37209" rx="9.22619" ry="9.37209" transform="matrix(-1 0 0 1 106.024 3.6279)" fill="#ACED51"/>
<path d="M97.1348 15.1038C96.8048 14.2523 95.5999 14.2523 95.2699 15.1038L92.8637 21.3131C92.6097 21.9684 93.0933 22.6744 93.7961 22.6744H98.6085C99.3114 22.6744 99.7949 21.9684 99.541 21.3131L97.1348 15.1038Z" fill="#358F14"/>
<path d="M97.1348 15.1038C96.8048 14.2523 95.5999 14.2523 95.2699 15.1038L92.8637 21.3131C92.6097 21.9684 93.0933 22.6744 93.7961 22.6744H98.6085C99.3114 22.6744 99.7949 21.9684 99.541 21.3131L97.1348 15.1038Z" fill="#85C729"/>
<g filter="url(#filter9_i_49_438)">
<path d="M95.2699 10.8962C95.5999 11.7477 96.8048 11.7477 97.1348 10.8962L99.541 4.68693C99.7949 4.03156 99.3114 3.32559 98.6085 3.32559H93.7961C93.0933 3.32559 92.6097 4.03156 92.8637 4.68693L95.2699 10.8962Z" fill="#358F14"/>
<path d="M95.2699 10.8962C95.5999 11.7477 96.8048 11.7477 97.1348 10.8962L99.541 4.68693C99.7949 4.03156 99.3114 3.32559 98.6085 3.32559H93.7961C93.0933 3.32559 92.6097 4.03156 92.8637 4.68693L95.2699 10.8962Z" fill="#85C729"/>
</g>
<path d="M93.911 13.94C94.7893 13.6211 94.7893 12.3789 93.911 12.06L88.4663 10.0833C87.8142 9.84653 87.125 10.3295 87.125 11.0232V14.9768C87.125 15.6705 87.8142 16.1535 88.4663 15.9167L93.911 13.94Z" fill="#358F14"/>
<path d="M93.911 13.94C94.7893 13.6211 94.7893 12.3789 93.911 12.06L88.4663 10.0833C87.8142 9.84653 87.125 10.3295 87.125 11.0232V14.9768C87.125 15.6705 87.8142 16.1535 88.4663 15.9167L93.911 13.94Z" fill="#85C729"/>
<path d="M98.7017 12.0777C97.8836 12.4204 97.8836 13.5796 98.7017 13.9223L104.489 16.3466C105.148 16.6226 105.875 16.1386 105.875 15.4242V10.5758C105.875 9.86139 105.148 9.37742 104.489 9.65345L98.7017 12.0777Z" fill="#358F14"/>
<path d="M98.7017 12.0777C97.8836 12.4204 97.8836 13.5796 98.7017 13.9223L104.489 16.3466C105.148 16.6226 105.875 16.1386 105.875 15.4242V10.5758C105.875 9.86139 105.148 9.37742 104.489 9.65345L98.7017 12.0777Z" fill="#85C729"/>
<g filter="url(#filter10_i_49_438)">
<path d="M97.8654 10.1263C97.4044 11.023 98.3869 11.9741 99.2465 11.4633L104.023 8.62468C104.592 8.28632 104.683 7.48803 104.205 7.02546L101.991 4.88168C101.513 4.41912 100.733 4.55 100.427 5.14388L97.8654 10.1263Z" fill="#358F14"/>
<path d="M97.8654 10.1263C97.4044 11.023 98.3869 11.9741 99.2465 11.4633L104.023 8.62468C104.592 8.28632 104.683 7.48803 104.205 7.02546L101.991 4.88168C101.513 4.41912 100.733 4.55 100.427 5.14388L97.8654 10.1263Z" fill="#85C729"/>
</g>
<g filter="url(#filter11_i_49_438)">
<path d="M93.3264 11.5953C94.2004 11.9992 95.072 11.0335 94.6002 10.1839L92.253 5.95744C91.9214 5.36027 91.1127 5.26535 90.6572 5.77013L88.6559 7.9876C88.2003 8.49238 88.3635 9.30248 88.9779 9.58634L93.3264 11.5953Z" fill="#358F14"/>
<path d="M93.3264 11.5953C94.2004 11.9992 95.072 11.0335 94.6002 10.1839L92.253 5.95744C91.9214 5.36027 91.1127 5.26535 90.6572 5.77013L88.6559 7.9876C88.2003 8.49238 88.3635 9.30248 88.9779 9.58634L93.3264 11.5953Z" fill="#85C729"/>
</g>
<path d="M94.7189 15.8042C95.1776 14.9323 94.2552 13.9808 93.39 14.4333L88.914 16.7739C88.3191 17.085 88.1915 17.8929 88.661 18.3772L90.7642 20.5468C91.2336 21.031 92.0308 20.9139 92.3462 20.3144L94.7189 15.8042Z" fill="#358F14"/>
<path d="M94.7189 15.8042C95.1776 14.9323 94.2552 13.9808 93.39 14.4333L88.914 16.7739C88.3191 17.085 88.1915 17.8929 88.661 18.3772L90.7642 20.5468C91.2336 21.031 92.0308 20.9139 92.3462 20.3144L94.7189 15.8042Z" fill="#85C729"/>
<path d="M99.1544 14.5832C98.3039 14.0438 97.291 14.982 97.7415 15.8919L100.301 21.0624C100.596 21.6582 101.37 21.8028 101.855 21.3528L104.129 19.2471C104.615 18.7971 104.544 18.001 103.987 17.6479L99.1544 14.5832Z" fill="#358F14"/>
<path d="M99.1544 14.5832C98.3039 14.0438 97.291 14.982 97.7415 15.8919L100.301 21.0624C100.596 21.6582 101.37 21.8028 101.855 21.3528L104.129 19.2471C104.615 18.7971 104.544 18.001 103.987 17.6479L99.1544 14.5832Z" fill="#85C729"/>
<path d="M93.6691 16.9622L91.4516 20.0593C91.37 20.1733 91.4008 20.3339 91.5187 20.4098V20.4098C91.6367 20.4857 91.7928 20.4454 91.8594 20.3218L93.6691 16.9622Z" fill="#D9D9D9"/>
<path d="M94.6236 13.4429L90.9231 14.1467C90.7841 14.1732 90.6954 14.3119 90.7299 14.4493V14.4493C90.7643 14.5867 90.9074 14.6656 91.042 14.6213L94.6236 13.4429Z" fill="#D9D9D9"/>
<path d="M99.5887 13.5939L103.148 14.8412C103.281 14.888 103.426 14.8119 103.463 14.6752V14.6752C103.5 14.5385 103.414 14.3981 103.275 14.369L99.5887 13.5939Z" fill="#D9D9D9"/>
<path d="M95.0602 11.4408L93.8797 9.25345C93.8465 9.19199 93.7692 9.17146 93.7099 9.20841V9.20841C93.6507 9.24537 93.6338 9.32477 93.6728 9.3826L95.0602 11.4408Z" fill="#D9D9D9"/>
<path d="M97.7784 11.8209L99.8464 10.4785C99.9052 10.4403 99.9208 10.3601 99.8806 10.3026V10.3026C99.8403 10.2451 99.7606 10.2337 99.7057 10.2776L97.7784 11.8209Z" fill="#D9D9D9"/>
<path d="M97.443 14.512L98.6119 16.7058C98.6448 16.7675 98.722 16.7884 98.7814 16.7518V16.7518C98.8408 16.7151 98.8582 16.6358 98.8195 16.5778L97.443 14.512Z" fill="#D9D9D9"/>
<path d="M97.1911 17.0273L98.3811 21.3666C98.4182 21.5019 98.5609 21.5773 98.6935 21.5317V21.5317C98.8262 21.486 98.8943 21.338 98.8428 21.2077L97.1911 17.0273Z" fill="#D9D9D9"/>
<path d="M96.5417 11.0744L97.8106 6.75775C97.8501 6.62334 97.7689 6.48249 97.6327 6.44934V6.44934C97.4965 6.4162 97.3612 6.50434 97.3365 6.64235L96.5417 11.0744Z" fill="#D9D9D9"/>
<path d="M114.286 13C114.286 18.9092 118.999 23.6861 124.798 23.6861C130.596 23.6861 135.31 18.9092 135.31 13C135.31 7.09085 130.596 2.31396 124.798 2.31396C118.999 2.31396 114.286 7.09085 114.286 13Z" fill="#E7EAE3" stroke="#9BE139"/>
<ellipse cx="9.22619" cy="9.37209" rx="9.22619" ry="9.37209" transform="matrix(-1 0 0 1 134.024 3.6279)" fill="#ACED51"/>
<path d="M125.135 15.1038C124.805 14.2523 123.6 14.2523 123.27 15.1038L120.864 21.3131C120.61 21.9684 121.093 22.6744 121.796 22.6744H126.609C127.311 22.6744 127.795 21.9684 127.541 21.3131L125.135 15.1038Z" fill="#358F14"/>
<path d="M125.135 15.1038C124.805 14.2523 123.6 14.2523 123.27 15.1038L120.864 21.3131C120.61 21.9684 121.093 22.6744 121.796 22.6744H126.609C127.311 22.6744 127.795 21.9684 127.541 21.3131L125.135 15.1038Z" fill="#85C729"/>
<g filter="url(#filter12_i_49_438)">
<path d="M123.27 10.8962C123.6 11.7477 124.805 11.7477 125.135 10.8962L127.541 4.68693C127.795 4.03156 127.311 3.32559 126.609 3.32559H121.796C121.093 3.32559 120.61 4.03156 120.864 4.68693L123.27 10.8962Z" fill="#358F14"/>
<path d="M123.27 10.8962C123.6 11.7477 124.805 11.7477 125.135 10.8962L127.541 4.68693C127.795 4.03156 127.311 3.32559 126.609 3.32559H121.796C121.093 3.32559 120.61 4.03156 120.864 4.68693L123.27 10.8962Z" fill="#85C729"/>
</g>
<path d="M121.911 13.94C122.789 13.6211 122.789 12.3789 121.911 12.06L116.466 10.0833C115.814 9.84653 115.125 10.3295 115.125 11.0232V14.9768C115.125 15.6705 115.814 16.1535 116.466 15.9167L121.911 13.94Z" fill="#358F14"/>
<path d="M121.911 13.94C122.789 13.6211 122.789 12.3789 121.911 12.06L116.466 10.0833C115.814 9.84653 115.125 10.3295 115.125 11.0232V14.9768C115.125 15.6705 115.814 16.1535 116.466 15.9167L121.911 13.94Z" fill="#85C729"/>
<path d="M126.702 12.0777C125.884 12.4204 125.884 13.5796 126.702 13.9223L132.489 16.3466C133.148 16.6226 133.875 16.1386 133.875 15.4242V10.5758C133.875 9.86139 133.148 9.37742 132.489 9.65345L126.702 12.0777Z" fill="#358F14"/>
<path d="M126.702 12.0777C125.884 12.4204 125.884 13.5796 126.702 13.9223L132.489 16.3466C133.148 16.6226 133.875 16.1386 133.875 15.4242V10.5758C133.875 9.86139 133.148 9.37742 132.489 9.65345L126.702 12.0777Z" fill="#85C729"/>
<g filter="url(#filter13_i_49_438)">
<path d="M125.865 10.1263C125.404 11.023 126.387 11.9741 127.246 11.4633L132.023 8.62468C132.592 8.28632 132.683 7.48803 132.205 7.02546L129.991 4.88168C129.513 4.41912 128.733 4.55 128.427 5.14388L125.865 10.1263Z" fill="#358F14"/>
<path d="M125.865 10.1263C125.404 11.023 126.387 11.9741 127.246 11.4633L132.023 8.62468C132.592 8.28632 132.683 7.48803 132.205 7.02546L129.991 4.88168C129.513 4.41912 128.733 4.55 128.427 5.14388L125.865 10.1263Z" fill="#85C729"/>
</g>
<g filter="url(#filter14_i_49_438)">
<path d="M121.326 11.5953C122.2 11.9992 123.072 11.0335 122.6 10.1839L120.253 5.95744C119.921 5.36027 119.113 5.26535 118.657 5.77013L116.656 7.9876C116.2 8.49238 116.363 9.30248 116.978 9.58634L121.326 11.5953Z" fill="#358F14"/>
<path d="M121.326 11.5953C122.2 11.9992 123.072 11.0335 122.6 10.1839L120.253 5.95744C119.921 5.36027 119.113 5.26535 118.657 5.77013L116.656 7.9876C116.2 8.49238 116.363 9.30248 116.978 9.58634L121.326 11.5953Z" fill="#85C729"/>
</g>
<path d="M122.719 15.8042C123.178 14.9323 122.255 13.9808 121.39 14.4333L116.914 16.7739C116.319 17.085 116.192 17.8929 116.661 18.3772L118.764 20.5468C119.234 21.031 120.031 20.9139 120.346 20.3144L122.719 15.8042Z" fill="#358F14"/>
<path d="M122.719 15.8042C123.178 14.9323 122.255 13.9808 121.39 14.4333L116.914 16.7739C116.319 17.085 116.192 17.8929 116.661 18.3772L118.764 20.5468C119.234 21.031 120.031 20.9139 120.346 20.3144L122.719 15.8042Z" fill="#85C729"/>
<path d="M127.154 14.5832C126.304 14.0438 125.291 14.982 125.741 15.8919L128.301 21.0624C128.596 21.6582 129.37 21.8028 129.855 21.3528L132.129 19.2471C132.615 18.7971 132.544 18.001 131.987 17.6479L127.154 14.5832Z" fill="#358F14"/>
<path d="M127.154 14.5832C126.304 14.0438 125.291 14.982 125.741 15.8919L128.301 21.0624C128.596 21.6582 129.37 21.8028 129.855 21.3528L132.129 19.2471C132.615 18.7971 132.544 18.001 131.987 17.6479L127.154 14.5832Z" fill="#85C729"/>
<path d="M121.669 16.9622L119.452 20.0593C119.37 20.1733 119.401 20.3339 119.519 20.4098V20.4098C119.637 20.4857 119.793 20.4454 119.859 20.3218L121.669 16.9622Z" fill="#D9D9D9"/>
<path d="M122.624 13.4429L118.923 14.1467C118.784 14.1732 118.695 14.3119 118.73 14.4493V14.4493C118.764 14.5867 118.907 14.6656 119.042 14.6213L122.624 13.4429Z" fill="#D9D9D9"/>
<path d="M127.589 13.5939L131.148 14.8412C131.281 14.888 131.426 14.8119 131.463 14.6752V14.6752C131.5 14.5385 131.414 14.3981 131.275 14.369L127.589 13.5939Z" fill="#D9D9D9"/>
<path d="M123.06 11.4408L121.88 9.25345C121.847 9.19199 121.769 9.17146 121.71 9.20841V9.20841C121.651 9.24537 121.634 9.32477 121.673 9.3826L123.06 11.4408Z" fill="#D9D9D9"/>
<path d="M125.778 11.8209L127.846 10.4785C127.905 10.4403 127.921 10.3601 127.881 10.3026V10.3026C127.84 10.2451 127.761 10.2337 127.706 10.2776L125.778 11.8209Z" fill="#D9D9D9"/>
<path d="M125.443 14.512L126.612 16.7058C126.645 16.7675 126.722 16.7884 126.781 16.7518V16.7518C126.841 16.7151 126.858 16.6358 126.82 16.5778L125.443 14.512Z" fill="#D9D9D9"/>
<path d="M125.191 17.0273L126.381 21.3666C126.418 21.5019 126.561 21.5773 126.694 21.5317V21.5317C126.826 21.486 126.894 21.338 126.843 21.2077L125.191 17.0273Z" fill="#D9D9D9"/>
<path d="M124.542 11.0744L125.811 6.75775C125.85 6.62334 125.769 6.48249 125.633 6.44934V6.44934C125.497 6.4162 125.361 6.50434 125.336 6.64235L124.542 11.0744Z" fill="#D9D9D9"/>
<defs>
<filter id="filter0_i_49_438" x="8.79517" y="3.32559" width="6.81433" height="12.2093" filterUnits="userSpaceOnUse" color-interpolation-filters="sRGB">
<feFlood flood-opacity="0" result="BackgroundImageFix"/>
<feBlend mode="normal" in="SourceGraphic" in2="BackgroundImageFix" result="shape"/>
<feColorMatrix in="SourceAlpha" type="matrix" values="0 0 0 0 0 0 0 0 0 0 0 0 0 0 0 0 0 0 127 0" result="hardAlpha"/>
<feOffset dy="4"/>
<feGaussianBlur stdDeviation="3"/>
<feComposite in2="hardAlpha" operator="arithmetic" k2="-1" k3="1"/>
<feColorMatrix type="matrix" values="0 0 0 0 0 0 0 0 0 0 0 0 0 0 0 0 0 0 0.11 0"/>
<feBlend mode="normal" in2="shape" result="effect1_innerShadow_49_438"/>
</filter>
<filter id="filter1_i_49_438" x="13.7476" y="4.603" width="6.76575" height="11.0036" filterUnits="userSpaceOnUse" color-interpolation-filters="sRGB">
<feFlood flood-opacity="0" result="BackgroundImageFix"/>
<feBlend mode="normal" in="SourceGraphic" in2="BackgroundImageFix" result="shape"/>
<feColorMatrix in="SourceAlpha" type="matrix" values="0 0 0 0 0 0 0 0 0 0 0 0 0 0 0 0 0 0 127 0" result="hardAlpha"/>
<feOffset dy="4"/>
<feGaussianBlur stdDeviation="5.5"/>
<feComposite in2="hardAlpha" operator="arithmetic" k2="-1" k3="1"/>
<feColorMatrix type="matrix" values="0 0 0 0 0 0 0 0 0 0 0 0 0 0 0 0 0 0 0.1 0"/>
<feBlend mode="normal" in2="shape" result="effect1_innerShadow_49_438"/>
</filter>
<filter id="filter2_i_49_438" x="4.39526" y="5.44382" width="6.33765" height="10.2463" filterUnits="userSpaceOnUse" color-interpolation-filters="sRGB">
<feFlood flood-opacity="0" result="BackgroundImageFix"/>
<feBlend mode="normal" in="SourceGraphic" in2="BackgroundImageFix" result="shape"/>
<feColorMatrix in="SourceAlpha" type="matrix" values="0 0 0 0 0 0 0 0 0 0 0 0 0 0 0 0 0 0 127 0" result="hardAlpha"/>
<feOffset dy="4"/>
<feGaussianBlur stdDeviation="2"/>
<feComposite in2="hardAlpha" operator="arithmetic" k2="-1" k3="1"/>
<feColorMatrix type="matrix" values="0 0 0 0 0 0 0 0 0 0 0 0 0 0 0 0 0 0 0.08 0"/>
<feBlend mode="normal" in2="shape" result="effect1_innerShadow_49_438"/>
</filter>
<filter id="filter3_i_49_438" x="36.7952" y="3.32559" width="6.81433" height="12.2093" filterUnits="userSpaceOnUse" color-interpolation-filters="sRGB">
<feFlood flood-opacity="0" result="BackgroundImageFix"/>
<feBlend mode="normal" in="SourceGraphic" in2="BackgroundImageFix" result="shape"/>
<feColorMatrix in="SourceAlpha" type="matrix" values="0 0 0 0 0 0 0 0 0 0 0 0 0 0 0 0 0 0 127 0" result="hardAlpha"/>
<feOffset dy="4"/>
<feGaussianBlur stdDeviation="3"/>
<feComposite in2="hardAlpha" operator="arithmetic" k2="-1" k3="1"/>
<feColorMatrix type="matrix" values="0 0 0 0 0 0 0 0 0 0 0 0 0 0 0 0 0 0 0.11 0"/>
<feBlend mode="normal" in2="shape" result="effect1_innerShadow_49_438"/>
</filter>
<filter id="filter4_i_49_438" x="41.7476" y="4.603" width="6.76575" height="11.0036" filterUnits="userSpaceOnUse" color-interpolation-filters="sRGB">
<feFlood flood-opacity="0" result="BackgroundImageFix"/>
<feBlend mode="normal" in="SourceGraphic" in2="BackgroundImageFix" result="shape"/>
<feColorMatrix in="SourceAlpha" type="matrix" values="0 0 0 0 0 0 0 0 0 0 0 0 0 0 0 0 0 0 127 0" result="hardAlpha"/>
<feOffset dy="4"/>
<feGaussianBlur stdDeviation="5.5"/>
<feComposite in2="hardAlpha" operator="arithmetic" k2="-1" k3="1"/>
<feColorMatrix type="matrix" values="0 0 0 0 0 0 0 0 0 0 0 0 0 0 0 0 0 0 0.1 0"/>
<feBlend mode="normal" in2="shape" result="effect1_innerShadow_49_438"/>
</filter>
<filter id="filter5_i_49_438" x="32.3953" y="5.44382" width="6.33765" height="10.2463" filterUnits="userSpaceOnUse" color-interpolation-filters="sRGB">
<feFlood flood-opacity="0" result="BackgroundImageFix"/>
<feBlend mode="normal" in="SourceGraphic" in2="BackgroundImageFix" result="shape"/>
<feColorMatrix in="SourceAlpha" type="matrix" values="0 0 0 0 0 0 0 0 0 0 0 0 0 0 0 0 0 0 127 0" result="hardAlpha"/>
<feOffset dy="4"/>
<feGaussianBlur stdDeviation="2"/>
<feComposite in2="hardAlpha" operator="arithmetic" k2="-1" k3="1"/>
<feColorMatrix type="matrix" values="0 0 0 0 0 0 0 0 0 0 0 0 0 0 0 0 0 0 0.08 0"/>
<feBlend mode="normal" in2="shape" result="effect1_innerShadow_49_438"/>
</filter>
<filter id="filter6_i_49_438" x="64.7952" y="3.32559" width="6.81433" height="12.2093" filterUnits="userSpaceOnUse" color-interpolation-filters="sRGB">
<feFlood flood-opacity="0" result="BackgroundImageFix"/>
<feBlend mode="normal" in="SourceGraphic" in2="BackgroundImageFix" result="shape"/>
<feColorMatrix in="SourceAlpha" type="matrix" values="0 0 0 0 0 0 0 0 0 0 0 0 0 0 0 0 0 0 127 0" result="hardAlpha"/>
<feOffset dy="4"/>
<feGaussianBlur stdDeviation="3"/>
<feComposite in2="hardAlpha" operator="arithmetic" k2="-1" k3="1"/>
<feColorMatrix type="matrix" values="0 0 0 0 0 0 0 0 0 0 0 0 0 0 0 0 0 0 0.11 0"/>
<feBlend mode="normal" in2="shape" result="effect1_innerShadow_49_438"/>
</filter>
<filter id="filter7_i_49_438" x="69.7476" y="4.603" width="6.76575" height="11.0036" filterUnits="userSpaceOnUse" color-interpolation-filters="sRGB">
<feFlood flood-opacity="0" result="BackgroundImageFix"/>
<feBlend mode="normal" in="SourceGraphic" in2="BackgroundImageFix" result="shape"/>
<feColorMatrix in="SourceAlpha" type="matrix" values="0 0 0 0 0 0 0 0 0 0 0 0 0 0 0 0 0 0 127 0" result="hardAlpha"/>
<feOffset dy="4"/>
<feGaussianBlur stdDeviation="5.5"/>
<feComposite in2="hardAlpha" operator="arithmetic" k2="-1" k3="1"/>
<feColorMatrix type="matrix" values="0 0 0 0 0 0 0 0 0 0 0 0 0 0 0 0 0 0 0.1 0"/>
<feBlend mode="normal" in2="shape" result="effect1_innerShadow_49_438"/>
</filter>
<filter id="filter8_i_49_438" x="60.3953" y="5.44382" width="6.33765" height="10.2463" filterUnits="userSpaceOnUse" color-interpolation-filters="sRGB">
<feFlood flood-opacity="0" result="BackgroundImageFix"/>
<feBlend mode="normal" in="SourceGraphic" in2="BackgroundImageFix" result="shape"/>
<feColorMatrix in="SourceAlpha" type="matrix" values="0 0 0 0 0 0 0 0 0 0 0 0 0 0 0 0 0 0 127 0" result="hardAlpha"/>
<feOffset dy="4"/>
<feGaussianBlur stdDeviation="2"/>
<feComposite in2="hardAlpha" operator="arithmetic" k2="-1" k3="1"/>
<feColorMatrix type="matrix" values="0 0 0 0 0 0 0 0 0 0 0 0 0 0 0 0 0 0 0.08 0"/>
<feBlend mode="normal" in2="shape" result="effect1_innerShadow_49_438"/>
</filter>
<filter id="filter9_i_49_438" x="92.7952" y="3.32559" width="6.81433" height="12.2093" filterUnits="userSpaceOnUse" color-interpolation-filters="sRGB">
<feFlood flood-opacity="0" result="BackgroundImageFix"/>
<feBlend mode="normal" in="SourceGraphic" in2="BackgroundImageFix" result="shape"/>
<feColorMatrix in="SourceAlpha" type="matrix" values="0 0 0 0 0 0 0 0 0 0 0 0 0 0 0 0 0 0 127 0" result="hardAlpha"/>
<feOffset dy="4"/>
<feGaussianBlur stdDeviation="3"/>
<feComposite in2="hardAlpha" operator="arithmetic" k2="-1" k3="1"/>
<feColorMatrix type="matrix" values="0 0 0 0 0 0 0 0 0 0 0 0 0 0 0 0 0 0 0.11 0"/>
<feBlend mode="normal" in2="shape" result="effect1_innerShadow_49_438"/>
</filter>
<filter id="filter10_i_49_438" x="97.7476" y="4.603" width="6.76575" height="11.0036" filterUnits="userSpaceOnUse" color-interpolation-filters="sRGB">
<feFlood flood-opacity="0" result="BackgroundImageFix"/>
<feBlend mode="normal" in="SourceGraphic" in2="BackgroundImageFix" result="shape"/>
<feColorMatrix in="SourceAlpha" type="matrix" values="0 0 0 0 0 0 0 0 0 0 0 0 0 0 0 0 0 0 127 0" result="hardAlpha"/>
<feOffset dy="4"/>
<feGaussianBlur stdDeviation="5.5"/>
<feComposite in2="hardAlpha" operator="arithmetic" k2="-1" k3="1"/>
<feColorMatrix type="matrix" values="0 0 0 0 0 0 0 0 0 0 0 0 0 0 0 0 0 0 0.1 0"/>
<feBlend mode="normal" in2="shape" result="effect1_innerShadow_49_438"/>
</filter>
<filter id="filter11_i_49_438" x="88.3953" y="5.44382" width="6.33765" height="10.2463" filterUnits="userSpaceOnUse" color-interpolation-filters="sRGB">
<feFlood flood-opacity="0" result="BackgroundImageFix"/>
<feBlend mode="normal" in="SourceGraphic" in2="BackgroundImageFix" result="shape"/>
<feColorMatrix in="SourceAlpha" type="matrix" values="0 0 0 0 0 0 0 0 0 0 0 0 0 0 0 0 0 0 127 0" result="hardAlpha"/>
<feOffset dy="4"/>
<feGaussianBlur stdDeviation="2"/>
<feComposite in2="hardAlpha" operator="arithmetic" k2="-1" k3="1"/>
<feColorMatrix type="matrix" values="0 0 0 0 0 0 0 0 0 0 0 0 0 0 0 0 0 0 0.08 0"/>
<feBlend mode="normal" in2="shape" result="effect1_innerShadow_49_438"/>
</filter>
<filter id="filter12_i_49_438" x="120.795" y="3.32559" width="6.81433" height="12.2093" filterUnits="userSpaceOnUse" color-interpolation-filters="sRGB">
<feFlood flood-opacity="0" result="BackgroundImageFix"/>
<feBlend mode="normal" in="SourceGraphic" in2="BackgroundImageFix" result="shape"/>
<feColorMatrix in="SourceAlpha" type="matrix" values="0 0 0 0 0 0 0 0 0 0 0 0 0 0 0 0 0 0 127 0" result="hardAlpha"/>
<feOffset dy="4"/>
<feGaussianBlur stdDeviation="3"/>
<feComposite in2="hardAlpha" operator="arithmetic" k2="-1" k3="1"/>
<feColorMatrix type="matrix" values="0 0 0 0 0 0 0 0 0 0 0 0 0 0 0 0 0 0 0.11 0"/>
<feBlend mode="normal" in2="shape" result="effect1_innerShadow_49_438"/>
</filter>
<filter id="filter13_i_49_438" x="125.748" y="4.603" width="6.76575" height="11.0036" filterUnits="userSpaceOnUse" color-interpolation-filters="sRGB">
<feFlood flood-opacity="0" result="BackgroundImageFix"/>
<feBlend mode="normal" in="SourceGraphic" in2="BackgroundImageFix" result="shape"/>
<feColorMatrix in="SourceAlpha" type="matrix" values="0 0 0 0 0 0 0 0 0 0 0 0 0 0 0 0 0 0 127 0" result="hardAlpha"/>
<feOffset dy="4"/>
<feGaussianBlur stdDeviation="5.5"/>
<feComposite in2="hardAlpha" operator="arithmetic" k2="-1" k3="1"/>
<feColorMatrix type="matrix" values="0 0 0 0 0 0 0 0 0 0 0 0 0 0 0 0 0 0 0.1 0"/>
<feBlend mode="normal" in2="shape" result="effect1_innerShadow_49_438"/>
</filter>
<filter id="filter14_i_49_438" x="116.395" y="5.44382" width="6.33765" height="10.2463" filterUnits="userSpaceOnUse" color-interpolation-filters="sRGB">
<feFlood flood-opacity="0" result="BackgroundImageFix"/>
<feBlend mode="normal" in="SourceGraphic" in2="BackgroundImageFix" result="shape"/>
<feColorMatrix in="SourceAlpha" type="matrix" values="0 0 0 0 0 0 0 0 0 0 0 0 0 0 0 0 0 0 127 0" result="hardAlpha"/>
<feOffset dy="4"/>
<feGaussianBlur stdDeviation="2"/>
<feComposite in2="hardAlpha" operator="arithmetic" k2="-1" k3="1"/>
<feColorMatrix type="matrix" values="0 0 0 0 0 0 0 0 0 0 0 0 0 0 0 0 0 0 0.08 0"/>
<feBlend mode="normal" in2="shape" result="effect1_innerShadow_49_438"/>
</filter>
</defs>
</svg>
