<svg width="25" height="26" viewBox="0 0 25 26" fill="none" xmlns="http://www.w3.org/2000/svg">
<path d="M22.7142 13C22.7142 18.9092 18.0005 23.6861 12.2023 23.6861C6.40414 23.6861 1.69043 18.9092 1.69043 13C1.69043 7.09085 6.40414 2.31396 12.2023 2.31396C18.0005 2.31396 22.7142 7.09085 22.7142 13Z" fill="#E7EAE3" stroke="#9BE139"/>
<ellipse cx="12.2024" cy="13" rx="9.22619" ry="9.37209" fill="#ACED51"/>
<path d="M11.8652 15.1038C12.1952 14.2523 13.4001 14.2523 13.7301 15.1038L16.1363 21.3131C16.3903 21.9684 15.9067 22.6744 15.2039 22.6744H10.3915C9.6886 22.6744 9.20505 21.9684 9.45902 21.3131L11.8652 15.1038Z" fill="#358F14"/>
<path d="M11.8652 15.1038C12.1952 14.2523 13.4001 14.2523 13.7301 15.1038L16.1363 21.3131C16.3903 21.9684 15.9067 22.6744 15.2039 22.6744H10.3915C9.6886 22.6744 9.20505 21.9684 9.45902 21.3131L11.8652 15.1038Z" fill="#85C729"/>
<g filter="url(#filter0_i_49_100)">
<path d="M13.7301 10.8962C13.4001 11.7477 12.1952 11.7477 11.8652 10.8962L9.45904 4.68693C9.20507 4.03156 9.68862 3.32559 10.3915 3.32559H15.2039C15.9067 3.32559 16.3903 4.03156 16.1363 4.68693L13.7301 10.8962Z" fill="#358F14"/>
<path d="M13.7301 10.8962C13.4001 11.7477 12.1952 11.7477 11.8652 10.8962L9.45904 4.68693C9.20507 4.03156 9.68862 3.32559 10.3915 3.32559H15.2039C15.9067 3.32559 16.3903 4.03156 16.1363 4.68693L13.7301 10.8962Z" fill="#85C729"/>
</g>
<path d="M15.089 13.94C14.2107 13.6211 14.2107 12.3789 15.089 12.06L20.5337 10.0833C21.1858 9.84653 21.875 10.3295 21.875 11.0232V14.9768C21.875 15.6705 21.1858 16.1535 20.5337 15.9167L15.089 13.94Z" fill="#358F14"/>
<path d="M15.089 13.94C14.2107 13.6211 14.2107 12.3789 15.089 12.06L20.5337 10.0833C21.1858 9.84653 21.875 10.3295 21.875 11.0232V14.9768C21.875 15.6705 21.1858 16.1535 20.5337 15.9167L15.089 13.94Z" fill="#85C729"/>
<path d="M10.2983 12.0777C11.1164 12.4204 11.1164 13.5796 10.2983 13.9223L4.51138 16.3466C3.85246 16.6226 3.125 16.1386 3.125 15.4242L3.125 10.5758C3.125 9.86139 3.85246 9.37742 4.51138 9.65345L10.2983 12.0777Z" fill="#358F14"/>
<path d="M10.2983 12.0777C11.1164 12.4204 11.1164 13.5796 10.2983 13.9223L4.51138 16.3466C3.85246 16.6226 3.125 16.1386 3.125 15.4242L3.125 10.5758C3.125 9.86139 3.85246 9.37742 4.51138 9.65345L10.2983 12.0777Z" fill="#85C729"/>
<g filter="url(#filter1_i_49_100)">
<path d="M11.1346 10.1263C11.5956 11.023 10.6131 11.9741 9.75353 11.4633L4.97744 8.62468C4.40815 8.28632 4.31695 7.48803 4.79474 7.02546L7.00908 4.88168C7.48687 4.41912 8.26745 4.55 8.5728 5.14388L11.1346 10.1263Z" fill="#358F14"/>
<path d="M11.1346 10.1263C11.5956 11.023 10.6131 11.9741 9.75353 11.4633L4.97744 8.62468C4.40815 8.28632 4.31695 7.48803 4.79474 7.02546L7.00908 4.88168C7.48687 4.41912 8.26745 4.55 8.5728 5.14388L11.1346 10.1263Z" fill="#85C729"/>
</g>
<g filter="url(#filter2_i_49_100)">
<path d="M15.6736 11.5953C14.7996 11.9992 13.928 11.0335 14.3998 10.1839L16.747 5.95744C17.0786 5.36027 17.8873 5.26535 18.3428 5.77013L20.3441 7.9876C20.7997 8.49238 20.6365 9.30248 20.0221 9.58634L15.6736 11.5953Z" fill="#358F14"/>
<path d="M15.6736 11.5953C14.7996 11.9992 13.928 11.0335 14.3998 10.1839L16.747 5.95744C17.0786 5.36027 17.8873 5.26535 18.3428 5.77013L20.3441 7.9876C20.7997 8.49238 20.6365 9.30248 20.0221 9.58634L15.6736 11.5953Z" fill="#85C729"/>
</g>
<path d="M14.2811 15.8042C13.8224 14.9323 14.7448 13.9808 15.61 14.4333L20.086 16.7739C20.6809 17.085 20.8085 17.8929 20.339 18.3772L18.2358 20.5468C17.7664 21.031 16.9692 20.9139 16.6538 20.3144L14.2811 15.8042Z" fill="#358F14"/>
<path d="M14.2811 15.8042C13.8224 14.9323 14.7448 13.9808 15.61 14.4333L20.086 16.7739C20.6809 17.085 20.8085 17.8929 20.339 18.3772L18.2358 20.5468C17.7664 21.031 16.9692 20.9139 16.6538 20.3144L14.2811 15.8042Z" fill="#85C729"/>
<path d="M9.8456 14.5832C10.6961 14.0438 11.709 14.982 11.2585 15.8919L8.69916 21.0624C8.4042 21.6582 7.63038 21.8028 7.14457 21.3528L4.87116 19.2471C4.38535 18.7971 4.45586 18.001 5.01282 17.6479L9.8456 14.5832Z" fill="#358F14"/>
<path d="M9.8456 14.5832C10.6961 14.0438 11.709 14.982 11.2585 15.8919L8.69916 21.0624C8.4042 21.6582 7.63038 21.8028 7.14457 21.3528L4.87116 19.2471C4.38535 18.7971 4.45586 18.001 5.01282 17.6479L9.8456 14.5832Z" fill="#85C729"/>
<path d="M15.3309 16.9622L17.5484 20.0593C17.63 20.1733 17.5992 20.3339 17.4813 20.4098V20.4098C17.3633 20.4857 17.2072 20.4454 17.1406 20.3218L15.3309 16.9622Z" fill="#D9D9D9"/>
<path d="M14.3764 13.4429L18.0769 14.1467C18.2159 14.1732 18.3046 14.3119 18.2701 14.4493V14.4493C18.2357 14.5867 18.0926 14.6656 17.958 14.6213L14.3764 13.4429Z" fill="#D9D9D9"/>
<path d="M9.41125 13.5939L5.85223 14.8412C5.71851 14.888 5.57397 14.8119 5.53699 14.6752V14.6752C5.50001 14.5385 5.586 14.3981 5.72451 14.369L9.41125 13.5939Z" fill="#D9D9D9"/>
<path d="M13.9398 11.4408L15.1203 9.25345C15.1535 9.19199 15.2308 9.17146 15.2901 9.20841V9.20841C15.3493 9.24537 15.3662 9.32477 15.3272 9.3826L13.9398 11.4408Z" fill="#D9D9D9"/>
<path d="M11.2216 11.8209L9.15361 10.4785C9.09476 10.4403 9.07918 10.3601 9.11944 10.3026V10.3026C9.15971 10.2451 9.23941 10.2337 9.29425 10.2776L11.2216 11.8209Z" fill="#D9D9D9"/>
<path d="M11.557 14.512L10.3881 16.7058C10.3552 16.7675 10.278 16.7884 10.2186 16.7518V16.7518C10.1592 16.7151 10.1418 16.6358 10.1805 16.5778L11.557 14.512Z" fill="#D9D9D9"/>
<path d="M11.8089 17.0273L10.6189 21.3666C10.5818 21.5019 10.4391 21.5773 10.3065 21.5317V21.5317C10.1738 21.486 10.1057 21.338 10.1572 21.2077L11.8089 17.0273Z" fill="#D9D9D9"/>
<path d="M12.4583 11.0744L11.1894 6.75775C11.1499 6.62334 11.2311 6.48249 11.3673 6.44934V6.44934C11.5035 6.4162 11.6388 6.50434 11.6635 6.64235L12.4583 11.0744Z" fill="#D9D9D9"/>
<defs>
<filter id="filter0_i_49_100" x="9.3905" y="3.32559" width="6.81433" height="12.2093" filterUnits="userSpaceOnUse" color-interpolation-filters="sRGB">
<feFlood flood-opacity="0" result="BackgroundImageFix"/>
<feBlend mode="normal" in="SourceGraphic" in2="BackgroundImageFix" result="shape"/>
<feColorMatrix in="SourceAlpha" type="matrix" values="0 0 0 0 0 0 0 0 0 0 0 0 0 0 0 0 0 0 127 0" result="hardAlpha"/>
<feOffset dy="4"/>
<feGaussianBlur stdDeviation="3"/>
<feComposite in2="hardAlpha" operator="arithmetic" k2="-1" k3="1"/>
<feColorMatrix type="matrix" values="0 0 0 0 0 0 0 0 0 0 0 0 0 0 0 0 0 0 0.11 0"/>
<feBlend mode="normal" in2="shape" result="effect1_innerShadow_49_100"/>
</filter>
<filter id="filter1_i_49_100" x="4.48669" y="4.603" width="6.76575" height="11.0036" filterUnits="userSpaceOnUse" color-interpolation-filters="sRGB">
<feFlood flood-opacity="0" result="BackgroundImageFix"/>
<feBlend mode="normal" in="SourceGraphic" in2="BackgroundImageFix" result="shape"/>
<feColorMatrix in="SourceAlpha" type="matrix" values="0 0 0 0 0 0 0 0 0 0 0 0 0 0 0 0 0 0 127 0" result="hardAlpha"/>
<feOffset dy="4"/>
<feGaussianBlur stdDeviation="5.5"/>
<feComposite in2="hardAlpha" operator="arithmetic" k2="-1" k3="1"/>
<feColorMatrix type="matrix" values="0 0 0 0 0 0 0 0 0 0 0 0 0 0 0 0 0 0 0.1 0"/>
<feBlend mode="normal" in2="shape" result="effect1_innerShadow_49_100"/>
</filter>
<filter id="filter2_i_49_100" x="14.2671" y="5.44382" width="6.33765" height="10.2463" filterUnits="userSpaceOnUse" color-interpolation-filters="sRGB">
<feFlood flood-opacity="0" result="BackgroundImageFix"/>
<feBlend mode="normal" in="SourceGraphic" in2="BackgroundImageFix" result="shape"/>
<feColorMatrix in="SourceAlpha" type="matrix" values="0 0 0 0 0 0 0 0 0 0 0 0 0 0 0 0 0 0 127 0" result="hardAlpha"/>
<feOffset dy="4"/>
<feGaussianBlur stdDeviation="2"/>
<feComposite in2="hardAlpha" operator="arithmetic" k2="-1" k3="1"/>
<feColorMatrix type="matrix" values="0 0 0 0 0 0 0 0 0 0 0 0 0 0 0 0 0 0 0.08 0"/>
<feBlend mode="normal" in2="shape" result="effect1_innerShadow_49_100"/>
</filter>
</defs>
</svg>
